<svg id="Layer_1" data-name="Layer 1" xmlns="http://www.w3.org/2000/svg" viewBox="0 0 802.65 1000.78"><defs><style>.cls-1{fill:#f48d04;}.cls-2{stroke:#000;stroke-miterlimit:10;stroke-width:6px;}</style></defs><circle class="cls-1" cx="401.33" cy="401.33" r="401.33"/><path d="M862.6,518.78l83.82-99.2a2.9,2.9,0,0,0-.22-4l-.7-.66a2.9,2.9,0,0,0-4,0l-84.66,80.42a3.54,3.54,0,0,1-4.93-.06l0-.05a3.52,3.52,0,0,1-.06-4.92l80.36-84.89a2.89,2.89,0,0,0-.06-4l0,0a2.9,2.9,0,0,0-4-.06l-84.89,80.37a3.52,3.52,0,0,1-4.91-.07l-.06-.05a3.52,3.52,0,0,1-.06-4.92l80.36-84.89a2.9,2.9,0,0,0-.06-4l0,0a2.9,2.9,0,0,0-4-.06L829.44,468a3.53,3.53,0,0,1-4.92-.07l0-.05a3.53,3.53,0,0,1-.07-4.92l80.37-84.89a2.9,2.9,0,0,0-.06-4l-.53-.53a2.9,2.9,0,0,0-3.92-.17L801,457.19a101.93,101.93,0,0,0-28.14,38.27l-.14.33a50.92,50.92,0,0,0-4,19.37l0,2.61a32.78,32.78,0,0,1-10.13,23.42L477.28,810a22.78,22.78,0,0,0-.39,32.6l.33.33a22.79,22.79,0,0,0,32.61-.39L778.47,561.34a32.8,32.8,0,0,1,23.09-10.12l3.33-.06a51.12,51.12,0,0,0,18.86-4l.57-.24A101.85,101.85,0,0,0,862.6,518.78Z" transform="translate(-307.34 -209.77)"/><path d="M930.17,861.22a28,28,0,0,1-20.48-8.77L640.75,570.35a33,33,0,0,0-24.15-10.21,35,35,0,0,0-5.68.46,83.08,83.08,0,0,1-13.6,1.08c-28.49,0-61-13.33-80.8-33.18-16.13-16.12-35.35-47.87-46.74-77.2-6.54-16.83-10.26-31.87-11.08-44.71-1-15.63,2.45-27.49,10.2-35.25,6.88-6.88,17-10.37,30.16-10.37,41.5,0,103.93,34.9,127,58,23.72,23.72,37.22,63.43,32.1,94.4a33.55,33.55,0,0,0,9.75,29.84L950,812.13a28.29,28.29,0,0,1,.48,40.47l-.34.34a28.09,28.09,0,0,1-20,8.28Z" transform="translate(-307.34 -209.77)"/><path class="cls-1" d="M499.06,366.47c38.95,0,99.89,33.14,123.12,56.37,21.67,21.67,35.51,59.7,30.56,89.62a39,39,0,0,0,11.38,34.71l282.1,268.94a22.78,22.78,0,0,1,.39,32.6l-.33.34a22.8,22.8,0,0,1-32.61-.39L644.73,566.56a38.74,38.74,0,0,0-28.13-11.92,40.75,40.75,0,0,0-6.58.54,77.76,77.76,0,0,1-12.7,1c-27.34,0-58.21-12.87-76.91-31.56-29.75-29.75-75.72-121.29-47.62-149.39,6.16-6.15,15.35-8.76,26.27-8.76m0-11c-14.64,0-26.1,4-34,12-20.07,20.07-11.28,57.75-.37,85.84,11.83,30.44,31.11,62.23,48,79.1,20.81,20.81,54.84,34.79,84.69,34.79a89.66,89.66,0,0,0,14.5-1.15,29.54,29.54,0,0,1,4.78-.39,27.54,27.54,0,0,1,20.17,8.51l268.94,282.1a34,34,0,0,0,24.46,10.47,33.51,33.51,0,0,0,23.88-9.9l.34-.33a33.79,33.79,0,0,0-.58-48.34L671.71,539.21a28.1,28.1,0,0,1-8.12-25c5.39-32.59-8.75-74.31-33.63-99.19-12.8-12.79-34.72-27.38-58.64-39-15.8-7.68-46.21-20.58-72.26-20.58Z" transform="translate(-307.34 -209.77)"/><path class="cls-2" d="M585.11,1207.55a28.73,28.73,0,0,1-17.09-5.08,31.81,31.81,0,0,1-10.94-14.25q-3.76-9.15-3.77-21.63V1165q0-13.32,3.77-23.18t11-15.28a27.77,27.77,0,0,1,17.21-5.43,29.9,29.9,0,0,1,15.14,3.69A30.26,30.26,0,0,1,611,1135.09v-41.5l-12.55-1v-6.78h21.79v112.42l12.56,1v6.69H612l-.69-11.78a28.63,28.63,0,0,1-10.7,9.86A32.39,32.39,0,0,1,585.11,1207.55Zm1.69-7.93q9,0,15-4.08a26,26,0,0,0,9.16-11.09v-38.89a29.46,29.46,0,0,0-8.77-11.89Q596.43,1129,587,1129a20.21,20.21,0,0,0-13.48,4.54,27.63,27.63,0,0,0-8.12,12.63,58.73,58.73,0,0,0-2.73,18.79v1.62q0,15.09,6,24.06T586.8,1199.62Z" transform="translate(-307.34 -209.77)"/><path class="cls-2" d="M645.56,1205.93v-6.69l12.55-1V1130.4l-12.55-1v-6.77h21.79v75.61l12.55,1v6.69ZM657,1099.13v-13.32h10.32v13.32Z" transform="translate(-307.34 -209.77)"/><path class="cls-2" d="M694.22,1205.93v-6.69l12.55-1V1130.4l-12.55-1v-6.77h20.72l.77,14.94a30.4,30.4,0,0,1,10.78-12.17,29.51,29.51,0,0,1,16.17-4.31q13.55,0,20.63,8.28t7.09,25.91v43l12.55,1v6.69H748.59v-6.69l12.55-1v-42.89q0-14.47-5.31-20.4T740.66,1129q-10.32,0-16.33,5.77a30.65,30.65,0,0,0-8.31,15.1v48.35l12.55,1v6.69Z" transform="translate(-307.34 -209.77)"/><path class="cls-2" d="M833,1207.55a34.31,34.31,0,0,1-18.86-5.2,35.47,35.47,0,0,1-12.79-14.4,46.63,46.63,0,0,1-4.62-21.21v-4.23a47.5,47.5,0,0,1,4.62-21.3,37.6,37.6,0,0,1,12.52-14.74,30.43,30.43,0,0,1,17.59-5.39q10.24,0,17.52,4.39a28.83,28.83,0,0,1,11.17,12.36,42.33,42.33,0,0,1,3.88,18.75v7.85H806.26l-.15,3.39a39.66,39.66,0,0,0,3.42,16.48,27.56,27.56,0,0,0,9.4,11.39,24.12,24.12,0,0,0,14.05,4.16,35.43,35.43,0,0,0,13.82-2.5,34.32,34.32,0,0,0,10.51-6.82l3.93,6.32a39.16,39.16,0,0,1-28.26,10.7Zm-26.1-50.82h47.89v-2.31a29.7,29.7,0,0,0-2.81-13.13,21.74,21.74,0,0,0-8-9.12,22.75,22.75,0,0,0-12.51-3.31,20.84,20.84,0,0,0-11.93,3.58,26.9,26.9,0,0,0-8.67,9.78,36.92,36.92,0,0,0-4.12,14Z" transform="translate(-307.34 -209.77)"/></svg>